<?xml version="1.0" encoding="UTF-8"?>
<svg version="1.1" xmlns="http://www.w3.org/2000/svg" width="512" height="512">
<path d="M0 0 C2.4375 1.125 2.4375 1.125 4 3 C5.11598016 6.42233916 5.41315439 8.15460157 3.81640625 11.421875 C1.816269 14.26077949 -0.32441281 16.16923318 -3 18.375 C-8.36211382 23.09616144 -10.49017483 26.13989512 -11.4375 33.3125 C-10.48638275 41.32905969 -6.91071458 47.72519804 -2 54 C-0.69289063 53.566875 -0.69289063 53.566875 0.640625 53.125 C18.70198675 47.49548465 18.70198675 47.49548465 27.4375 51.625 C29.48791759 53.52538703 30.79100976 55.08452684 32.375 57.3125 C34.83296663 60.44983507 34.83296663 60.44983507 38.9375 60.125 C45.76934703 58.64819096 49.93458284 54.49380698 54 49 C55.0150089 47.00757511 56.01873444 45.00925805 57 43 C60.20580406 41.39709797 63.52182314 41.51882929 67 42 C69.5 43.5625 69.5 43.5625 71 46 C72.14450719 52.48554076 69.4823967 56.78104815 66 62 C65.58878906 62.62132812 65.17757813 63.24265625 64.75390625 63.8828125 C60.41025075 69.63138922 54.26109053 72.66683044 48 76 C48.94746094 77.20269531 48.94746094 77.20269531 49.9140625 78.4296875 C51.82320999 80.8545076 53.72875412 83.28211967 55.6328125 85.7109375 C57.99419922 88.72286725 60.36613159 91.72619515 62.7421875 94.7265625 C63.99499551 96.31754784 65.24760251 97.90869149 66.5 99.5 C67.398396 100.62897705 67.398396 100.62897705 68.31494141 101.78076172 C75.90584496 111.45781402 75.90584496 111.45781402 76.125 117.375 C73.88254809 124.60067837 67.86376634 129.49990025 62 134 C54.70398106 137.64800947 41.73393882 133.04562531 33.81958008 131.58081055 C31.70218173 131.19020838 29.58279094 130.8123035 27.46289062 130.43554688 C4.59813556 126.29906778 4.59813556 126.29906778 -2 123 C-1.97679687 123.98355469 -1.95359375 124.96710938 -1.9296875 125.98046875 C-1.71356354 139.69680091 -2.5447172 153.48488479 -5 167 C-4.34515625 166.96519531 -3.6903125 166.93039062 -3.015625 166.89453125 C11.18208017 166.47341288 22.26419485 170.78567042 33 180 C42.71138127 191.08764489 52.76092613 208.31582558 52.35546875 223.43359375 C51.91654071 227.83734427 51.15971296 232.10882257 50.25 236.4375 C50.09329834 237.20690918 49.93659668 237.97631836 49.77514648 238.76904297 C48.7239504 243.36368153 47.52479834 246.65796898 44 250 C41.24582738 250.86605819 38.80683118 250.60392884 36 250 C33.5 248.5 33.5 248.5 32 246 C31.30901621 240.66955364 32.35620416 236.21611259 33.5625 231 C36.15207882 219.2030298 32.97089638 213.2269139 27 203 C9.1544406 210.28670761 -8.44761233 218.03906047 -26 226 C-26.16770254 229.01616928 -26.16770254 229.01616928 -25.01953125 231.75390625 C-17.29904907 256.33521159 -34.02914719 289.86191609 -45.1875 311.2421875 C-49.75762725 319.75218263 -54.95503556 327.45246313 -61 335 C-61.68835938 335.87785156 -62.37671875 336.75570313 -63.0859375 337.66015625 C-66.44125548 341.76186129 -69.39868339 344.55050762 -74.5625 346 C-78.41775435 346 -80.01091668 345.37368381 -83 343 C-84.55997226 339.88005547 -84.32538231 337.44027817 -84 334 C-82.05859375 331.48046875 -82.05859375 331.48046875 -79.4375 329.1875 C-71.01764996 321.32502031 -65.63673035 311.97135886 -60 302 C-60.36351562 301.57589844 -60.72703125 301.15179688 -61.1015625 300.71484375 C-62.16489377 299.4742906 -63.22450165 298.2305405 -64.28125 296.984375 C-65.35794151 295.74128571 -66.45902404 294.51847478 -67.59375 293.328125 C-75.94233768 284.38320963 -76.89973482 273.66860175 -78 262 C-78.98355469 262.32613281 -79.96710938 262.65226562 -80.98046875 262.98828125 C-115.87293771 274.14106674 -148.57626231 268.64382578 -184 263 C-184.04825928 263.56775146 -184.09651855 264.13550293 -184.14624023 264.72045898 C-186.39780062 288.13326442 -200.26712287 310.98184703 -218 326 C-225.19520883 330.5576393 -231.28928631 332.19531951 -239.75 332.1875 C-240.81927734 332.1884668 -240.81927734 332.1884668 -241.91015625 332.18945312 C-246.94542014 332.13882433 -251.2405038 331.58649873 -256 330 C-256.35384766 330.8353125 -256.35384766 330.8353125 -256.71484375 331.6875 C-258.8394613 335.51052003 -262.00198837 338.41168699 -265.00390625 341.5625 C-267.00719532 344.00878646 -267.73274097 344.92274241 -268 348 C-266.84287964 350.67654153 -266.84287964 350.67654153 -265.03515625 353.4296875 C-264.40029297 354.47253906 -263.76542969 355.51539063 -263.11132812 356.58984375 C-261.75004446 358.77256933 -260.38806987 360.95486416 -259.02539062 363.13671875 C-258.38923828 364.18214844 -257.75308594 365.22757812 -257.09765625 366.3046875 C-256.50476807 367.25327637 -255.91187988 368.20186523 -255.30102539 369.17919922 C-253.81261184 372.40628312 -253.6422724 374.48472603 -254 378 C-255.5 380.875 -255.5 380.875 -258 383 C-260.78972816 383.65741545 -263.2360982 383.78274563 -266 383 C-269.1930369 380.17402571 -271.27797191 377.17015162 -273.41796875 373.5 C-274.03220703 372.448125 -274.64644531 371.39625 -275.27929688 370.3125 C-275.90900391 369.219375 -276.53871094 368.12625 -277.1875 367 C-277.82880859 365.906875 -278.47011719 364.81375 -279.13085938 363.6875 C-283.46831033 356.21261092 -285.98516777 350.73612004 -285 342 C-283.15871091 335.59281163 -278.60205063 331.04230657 -274.12109375 326.296875 C-273.42113281 325.53890625 -272.72117187 324.7809375 -272 324 C-271.39285156 323.40703125 -270.78570312 322.8140625 -270.16015625 322.203125 C-268.31204435 318.69357917 -269.29595994 315.84021851 -270 312 C-270.87140625 312.73605469 -271.7428125 313.47210938 -272.640625 314.23046875 C-286.2164499 325.44619755 -298.1841147 330.09443001 -316 329 C-319.00246482 328.35380959 -321.8301059 327.56102331 -324.73046875 326.55859375 C-327.33697192 325.91706199 -328.47673003 326.16997305 -331 327 C-333.31941564 328.63871757 -335.53591818 330.2936676 -337.75 332.0625 C-338.35199219 332.53494141 -338.95398438 333.00738281 -339.57421875 333.49414062 C-341.05409943 334.65690401 -342.52768096 335.8276766 -344 337 C-343.4782389 342.09915713 -342.32470673 345.97544053 -340.05859375 350.5625 C-339.46922072 351.78376716 -338.8800336 353.00512406 -338.29101562 354.2265625 C-337.36481703 356.11776622 -336.43420271 358.00665464 -335.49926758 359.89355469 C-334.5906814 361.73609184 -333.69906057 363.58615379 -332.80859375 365.4375 C-332.27032959 366.52933594 -331.73206543 367.62117188 -331.17749023 368.74609375 C-329.85349263 372.40486216 -329.67913601 375.13683242 -330 379 C-331.5 381.4375 -331.5 381.4375 -334 383 C-336.77799312 383.55218306 -339.25340424 383.7295645 -342 383 C-345.77994848 379.85806675 -347.64919895 376.10205554 -349.63671875 371.70703125 C-349.96162796 371.00156662 -350.28653717 370.29610199 -350.62129211 369.56925964 C-351.30393927 368.07942815 -351.98192778 366.58745425 -352.65551758 365.09350586 C-353.67956171 362.83004612 -354.7263741 360.57814607 -355.77539062 358.32617188 C-356.43891591 356.87043621 -357.10106976 355.4140745 -357.76171875 353.95703125 C-358.22731453 352.96277885 -358.22731453 352.96277885 -358.70231628 351.94844055 C-361.43267881 345.79929914 -363.2288763 338.7754426 -360.8125 332.25 C-360.45091797 331.20585938 -360.45091797 331.20585938 -360.08203125 330.140625 C-357.50669588 325.0457377 -353.86488749 321.92890907 -349.25 318.6875 C-347.77273438 317.64142578 -347.77273438 317.64142578 -346.265625 316.57421875 C-345.51796875 316.05472656 -344.7703125 315.53523438 -344 315 C-344.33 314.01 -344.66 313.02 -345 312 C-345.8910017 305.42886248 -345.8910017 305.42886248 -343.71875 301.9453125 C-340.77263343 298.50371268 -337.51630923 295.54534959 -334.0625 292.625 C-323.73335332 283.77716505 -316.97707565 272.5074121 -315 259 C-314.82287646 255.13974876 -314.90758362 251.29951562 -315 247.4375 C-315.24104618 223.31264172 -311.02547521 201.14056225 -294 183 C-280.65815348 170.33618175 -264.52567743 165.40901334 -246.4765625 164.5703125 C-245.03674944 164.49898237 -243.59697176 164.42693512 -242.15722656 164.35424805 C-241.41605591 164.31729828 -240.67488525 164.28034851 -239.91125488 164.24227905 C-215.16655035 162.97293873 -190.98284473 161.19963845 -172.8671875 142.2109375 C-165.07708363 132.98667224 -160.18502763 121.73669377 -155.0625 110.90234375 C-151.17865848 102.77985004 -147.14617508 95.6857248 -141 89 C-140.32453125 88.24460937 -139.6490625 87.48921875 -138.953125 86.7109375 C-118.40288739 64.88568514 -87.20870521 55.61898817 -58 54 C-51.93861932 53.85139638 -45.8750191 53.9048694 -39.8125 53.9375 C-38.17643367 53.94252706 -36.54036583 53.94708783 -34.90429688 53.95117188 C-30.93616014 53.96207723 -26.96809709 53.9792747 -23 54 C-23.41572266 52.98679687 -23.41572266 52.98679687 -23.83984375 51.953125 C-24.20207031 51.06109375 -24.56429688 50.1690625 -24.9375 49.25 C-25.29714844 48.36828125 -25.65679687 47.4865625 -26.02734375 46.578125 C-29.45471596 37.49352395 -29.09451586 27.57953478 -25.390625 18.6328125 C-20.21109375 8.82662131 -12.02092061 -1.80313809 0 0 Z " fill="#527882" transform="translate(399,129)"/>
<path d="M0 0 C6.40682158 8.96955021 0.81002498 25.33282182 -0.890625 35.78125 C-1.02689049 36.62362717 -1.16315598 37.46600433 -1.30355072 38.33390808 C-2.02264626 42.7757521 -2.74850519 47.21642859 -3.47998047 51.65625 C-4.23165125 56.22743936 -4.95900012 60.80216379 -5.68118668 65.3780899 C-6.24419934 68.91655372 -6.82522693 72.45188876 -7.41118622 75.98661804 C-7.68746289 77.67277075 -7.95694561 79.36005177 -8.21936798 81.04841614 C-8.58713474 83.40371566 -8.98032485 85.7534303 -9.37988281 88.10351562 C-9.48189499 88.79447327 -9.58390717 89.48543091 -9.68901062 90.19732666 C-10.56018451 95.08684314 -12.34159833 97.47848303 -16.125 100.625 C-18.99108129 102.05804064 -20.93800783 101.93144155 -24.125 101.625 C-31.10265114 97.83212611 -36.11643247 91.54850578 -41.40429688 85.74023438 C-42.16677734 84.94294922 -42.92925781 84.14566406 -43.71484375 83.32421875 C-44.39409912 82.59033936 -45.07335449 81.85645996 -45.77319336 81.1003418 C-48.46189293 79.4136594 -50.0247937 79.32811077 -53.12477589 79.8688345 C-57.47692162 81.51412137 -60.4714468 85.22846845 -63.64306641 88.50952148 C-64.87613274 89.74850189 -64.87613274 89.74850189 -66.1341095 91.01251221 C-68.84564953 93.74351113 -71.53564111 96.49478993 -74.2265625 99.24609375 C-76.10878712 101.14713209 -77.99229502 103.04679815 -79.8777771 104.94459534 C-84.3313522 109.43226566 -88.77067565 113.93373241 -93.20394456 118.4414559 C-101.14325311 126.51387243 -109.0994323 134.5695764 -117.07144868 142.60969216 C-120.31726032 145.88474072 -123.54926114 149.17305632 -126.7784729 152.46446228 C-128.47387468 154.1803469 -130.16960678 155.89590523 -131.86572266 157.61108398 C-132.63156174 158.39713516 -133.39740082 159.18318634 -134.18644714 159.99305725 C-134.89840744 160.70956451 -135.61036774 161.42607178 -136.34390259 162.16429138 C-136.95702112 162.78796821 -137.57013966 163.41164503 -138.20183754 164.05422115 C-141.78074157 166.97735784 -145.4443491 167.92722602 -150 168 C-150.80179688 168.02835938 -151.60359375 168.05671875 -152.4296875 168.0859375 C-160.96803172 166.6257569 -166.53414799 159.5289492 -172.2578125 153.609375 C-173.22128191 152.62758074 -174.18580892 151.64682332 -175.15133667 150.66705322 C-179.22713153 146.52741613 -183.28382955 142.3692895 -187.33349609 138.20410156 C-189.82082163 135.64729686 -192.32019713 133.10278456 -194.82717514 130.56525421 C-196.23764018 129.12990323 -197.63373456 127.68047635 -199.02957153 126.230896 C-199.88751312 125.36289368 -200.74545471 124.49489136 -201.62939453 123.60058594 C-202.37883331 122.83099548 -203.12827209 122.06140503 -203.90042114 121.26849365 C-206.0066892 119.50995607 -206.0066892 119.50995607 -208.46038818 118.96542358 C-212.79093493 120.03737203 -215.2077547 123.06445479 -218.25439453 126.20263672 C-219.30164703 127.25120346 -219.30164703 127.25120346 -220.37005615 128.32095337 C-222.67788024 130.6373671 -224.96759702 132.97087381 -227.2578125 135.3046875 C-228.85657156 136.91531196 -230.45651282 138.52476373 -232.05758667 140.13308716 C-236.27266 144.37293559 -240.47294799 148.62713143 -244.66992188 152.8848877 C-250.58875859 158.88409469 -256.52741525 164.86369247 -262.46383667 170.8454895 C-265.62631092 174.03224023 -268.78320271 177.22436833 -271.93582153 180.42086792 C-273.37532823 181.87678745 -274.81485166 183.33269045 -276.25439453 184.78857422 C-276.90900665 185.45463684 -277.56361877 186.12069946 -278.23806763 186.8069458 C-278.84078491 187.41551422 -279.4435022 188.02408264 -280.06448364 188.65109253 C-280.58617693 189.1802017 -281.10787022 189.70931087 -281.64537239 190.25445366 C-284.90853169 193.27704597 -287.49499233 194.2510514 -291.94921875 194.12890625 C-296.32975385 193.11438376 -299.07920066 189.75295963 -302.125 186.625 C-302.86621094 185.90699219 -303.60742188 185.18898437 -304.37109375 184.44921875 C-310.92757084 178.05636141 -310.92757084 178.05636141 -311.625 173 C-311.57196765 169.25777809 -310.6405875 167.61443939 -308.11940002 164.88728333 C-307.16125239 163.84452964 -307.16125239 163.84452964 -306.18374825 162.78071022 C-302.73160732 159.16598195 -299.24638598 155.59051113 -295.71459961 152.0534668 C-294.90391525 151.23781754 -294.0932309 150.42216827 -293.25798035 149.58180237 C-290.60052226 146.90984929 -287.93928354 144.24170651 -285.27734375 141.57421875 C-284.36451693 140.65856455 -283.4516901 139.74291035 -282.51120186 138.79950905 C-278.18422709 134.45913267 -273.85551713 130.12050458 -269.5237779 125.7848832 C-264.54090995 120.79752285 -259.56467596 115.80366481 -254.5940246 110.8041293 C-250.27084786 106.45671155 -245.93943036 102.11759085 -241.60498238 97.78141212 C-239.76809347 95.94149748 -237.93370486 94.0990831 -236.10188103 92.2541256 C-233.5436095 89.67881109 -230.97605483 87.11311437 -228.40600586 84.54956055 C-227.65311279 83.7874527 -226.90021973 83.02534485 -226.12451172 82.24014282 C-221.77659559 77.92657695 -217.845027 74.20341883 -211.5625 73.2265625 C-210.758125 73.23429687 -209.95375 73.24203125 -209.125 73.25 C-207.9184375 73.23839844 -207.9184375 73.23839844 -206.6875 73.2265625 C-201.25288671 74.07157859 -197.26662535 77.09249369 -193.31689453 80.75170898 C-192.45453186 81.54978973 -191.59216919 82.34787048 -190.70367432 83.1701355 C-186.76198402 86.92257354 -182.88974034 90.73648046 -179.0546875 94.59765625 C-178.24758331 95.40617538 -177.44047913 96.21469452 -176.60891724 97.04771423 C-174.07022127 99.59193935 -171.53505328 102.13964586 -169 104.6875 C-167.2632546 106.42926958 -165.5262774 108.17080806 -163.7890625 109.91210938 C-159.56502998 114.14707672 -155.34387612 118.38489616 -151.125 122.625 C-146.04288796 121.1343378 -143.14444042 118.07583587 -139.51464844 114.41870117 C-138.87178894 113.78270493 -138.22892944 113.14670868 -137.56658936 112.49143982 C-135.44811596 110.39123785 -133.34088463 108.28016549 -131.234375 106.16796875 C-129.76454681 104.70270151 -128.29434697 103.23780699 -126.8237915 101.77326965 C-123.74563178 98.70404125 -120.67321495 95.62919986 -117.60449219 92.55053711 C-113.66966882 88.60421258 -109.71919779 84.67398299 -105.76406479 80.74802685 C-102.72532077 77.72761755 -99.69592781 74.69796498 -96.66919708 71.66552162 C-95.2161984 70.21236945 -93.76008608 68.76232374 -92.30083466 67.31545067 C-90.26342342 65.29289854 -88.23915387 63.25803905 -86.21777344 61.21948242 C-85.6120752 60.62345215 -85.00637695 60.02742188 -84.38232422 59.41333008 C-81.3587408 56.33563338 -79.24980747 54.16744309 -79.125 49.625 C-80.0229432 47.77389825 -80.0229432 47.77389825 -81.6875 46.1875 C-82.63689453 45.18009766 -82.63689453 45.18009766 -83.60546875 44.15234375 C-89.487442 38.24122298 -89.487442 38.24122298 -95.41235352 32.37329102 C-96.30265259 31.4962854 -96.30265259 31.4962854 -97.2109375 30.6015625 C-97.7476709 30.07643066 -98.2844043 29.55129883 -98.83740234 29.01025391 C-101.66832557 25.96462281 -101.5249172 22.86234973 -101.4609375 18.8828125 C-101.125 16.625 -101.125 16.625 -99.125 13.6875 C-93.73316833 9.98061573 -86.9667895 9.34835097 -80.59838867 8.29638672 C-79.89312546 8.17905182 -79.18786224 8.06171692 -78.46122742 7.94082642 C-76.15573037 7.55843814 -73.84943867 7.18116022 -71.54296875 6.8046875 C-69.92164925 6.53854589 -68.30033692 6.27236064 -66.67903137 6.00613403 C-63.28960464 5.45060296 -59.89970529 4.89805884 -56.50952148 4.34716797 C-52.19132557 3.64487868 -47.87505664 2.93141846 -43.55915356 2.21519279 C-40.21327372 1.66190327 -36.8661334 1.11655533 -33.51861 0.57330704 C-31.92793337 0.31384382 -30.3377159 0.05154742 -28.74800682 -0.21377945 C-5.3977499 -4.10228993 -5.3977499 -4.10228993 0 0 Z " fill="#A1E62D" transform="translate(416.125,2.375)"/>
<path d="M0 0 C1.02480469 0.00644531 2.04960937 0.01289063 3.10546875 0.01953125 C4.16894531 0.03628906 5.23242188 0.05304688 6.328125 0.0703125 C7.40707031 0.07933594 8.48601562 0.08835938 9.59765625 0.09765625 C12.25803778 0.12119945 14.91796836 0.15408451 17.578125 0.1953125 C17.9093481 15.26596355 17.27390053 30.3321177 14.578125 45.1953125 C15.56039062 45.14310547 15.56039062 45.14310547 16.5625 45.08984375 C30.76020517 44.66872538 41.84231985 48.98098292 52.578125 58.1953125 C62.28950627 69.28295739 72.33905113 86.51113808 71.93359375 101.62890625 C71.49466571 106.03265677 70.73783796 110.30413507 69.828125 114.6328125 C69.67142334 115.40222168 69.51472168 116.17163086 69.35327148 116.96435547 C68.3020754 121.55899403 67.10292334 124.85328148 63.578125 128.1953125 C60.82395238 129.06137069 58.38495618 128.79924134 55.578125 128.1953125 C53.078125 126.6953125 53.078125 126.6953125 51.578125 124.1953125 C50.88714121 118.86486614 51.93432916 114.41142509 53.140625 109.1953125 C55.73020382 97.3983423 52.54902138 91.4222264 46.578125 81.1953125 C28.7325656 88.48202011 11.13051267 96.23437297 -6.421875 104.1953125 C-6.58957754 107.21148178 -6.58957754 107.21148178 -5.44140625 109.94921875 C2.27907593 134.53052409 -14.45102219 168.05722859 -25.609375 189.4375 C-30.17950225 197.94749513 -35.37691056 205.64777563 -41.421875 213.1953125 C-42.11023438 214.07316406 -42.79859375 214.95101562 -43.5078125 215.85546875 C-46.86313048 219.95717379 -49.82055839 222.74582012 -54.984375 224.1953125 C-58.83962935 224.1953125 -60.43279168 223.56899631 -63.421875 221.1953125 C-64.98184726 218.07536797 -64.74725731 215.63559067 -64.421875 212.1953125 C-62.48046875 209.67578125 -62.48046875 209.67578125 -59.859375 207.3828125 C-51.43952496 199.52033281 -46.05860535 190.16667136 -40.421875 180.1953125 C-41.35778004 179.0897936 -42.29567358 177.98595797 -43.234375 176.8828125 C-43.75644531 176.26792969 -44.27851563 175.65304687 -44.81640625 175.01953125 C-46.35715656 173.16738483 -46.35715656 173.16738483 -48.1796875 171.765625 C-49.421875 170.1953125 -49.421875 170.1953125 -49.26953125 168.05078125 C-48.88087891 166.73013672 -48.88087891 166.73013672 -48.484375 165.3828125 C-48.18660156 164.31933594 -47.88882813 163.25585938 -47.58203125 162.16015625 C-47.40172363 161.5451123 -47.22141602 160.93006836 -47.03564453 160.29638672 C-38.34778256 135.11718816 -38.34778256 135.11718816 -37.421875 109.1953125 C-40.71088262 104.07697211 -46.6236495 103.48872608 -52.171875 102.1953125 C-53.22213867 101.9389502 -54.27240234 101.68258789 -55.35449219 101.41845703 C-64.07853959 99.35346335 -72.86578012 97.83587049 -81.75292969 96.6640625 C-88.80553034 95.64729858 -88.80553034 95.64729858 -92.05859375 93.26171875 C-94.00483646 90.31168324 -94.05802299 88.65878487 -93.421875 85.1953125 C-91.734375 82.2578125 -91.734375 82.2578125 -88.421875 80.1953125 C-70.72625443 78.22258941 -49.23240585 86.15000631 -32.421875 91.1953125 C-23.44681496 72.18305514 -17.55160038 52.51846754 -15.71875 31.51953125 C-15.65741379 30.83044174 -15.59607758 30.14135223 -15.53288269 29.43138123 C-15.22402747 25.93312005 -14.93701931 22.43532342 -14.68676758 18.93237305 C-14.58001709 17.63468994 -14.4732666 16.33700684 -14.36328125 15 C-14.27763916 13.83452637 -14.19199707 12.66905273 -14.10375977 11.46826172 C-13.15766265 6.92713108 -11.33512629 3.55961612 -7.51074219 0.83251953 C-4.91911982 0.04194749 -2.71001899 -0.03011132 0 0 Z " fill="#4D6F77" transform="translate(379.421875,250.8046875)"/>
<path d="M0 0 C1.52270508 0.00966797 1.52270508 0.00966797 3.07617188 0.01953125 C4.63368164 0.04466797 4.63368164 0.04466797 6.22265625 0.0703125 C7.28806641 0.07933594 8.35347656 0.08835937 9.45117188 0.09765625 C12.06273659 0.12107836 14.67382562 0.15387798 17.28515625 0.1953125 C15.48334406 24.0610519 2.99325524 45.36469438 -13.93359375 61.83984375 C-21.42206113 68.1819025 -28.82883969 70.39171823 -38.46484375 70.3828125 C-39.53412109 70.3837793 -39.53412109 70.3837793 -40.625 70.38476562 C-45.66026389 70.33413683 -49.95534755 69.78181123 -54.71484375 68.1953125 C-54.95074219 68.7521875 -55.18664062 69.3090625 -55.4296875 69.8828125 C-57.55430505 73.70583253 -60.71683212 76.60699949 -63.71875 79.7578125 C-65.72203907 82.20409896 -66.44758472 83.11805491 -66.71484375 86.1953125 C-65.55772339 88.87185403 -65.55772339 88.87185403 -63.75 91.625 C-63.11513672 92.66785156 -62.48027344 93.71070313 -61.82617188 94.78515625 C-60.46488821 96.96788183 -59.10291362 99.15017666 -57.74023438 101.33203125 C-57.10408203 102.37746094 -56.46792969 103.42289062 -55.8125 104.5 C-55.21961182 105.44858887 -54.62672363 106.39717773 -54.01586914 107.37451172 C-52.52745559 110.60159562 -52.35711615 112.68003853 -52.71484375 116.1953125 C-54.21484375 119.0703125 -54.21484375 119.0703125 -56.71484375 121.1953125 C-59.50457191 121.85272795 -61.95094195 121.97805813 -64.71484375 121.1953125 C-67.90788065 118.36933821 -69.99281566 115.36546412 -72.1328125 111.6953125 C-72.74705078 110.6434375 -73.36128906 109.5915625 -73.99414062 108.5078125 C-74.62384766 107.4146875 -75.25355469 106.3215625 -75.90234375 105.1953125 C-76.86430664 103.555625 -76.86430664 103.555625 -77.84570312 101.8828125 C-82.18315408 94.40792342 -84.70001152 88.93143254 -83.71484375 80.1953125 C-81.87355466 73.78812413 -77.31689438 69.23761907 -72.8359375 64.4921875 C-68.93816051 60.73896824 -68.93816051 60.73896824 -67.7734375 55.78515625 C-67.89847656 54.90988281 -68.02351562 54.03460938 -68.15234375 53.1328125 C-68.25708864 49.35700873 -68.05499137 47.67665347 -65.8515625 44.55859375 C-64.11803429 42.75496953 -62.35974579 40.97493222 -60.58203125 39.21484375 C-57.39145406 35.99719106 -54.93435611 32.41869809 -52.46484375 28.6328125 C-52.0776416 28.0440332 -51.69043945 27.45525391 -51.29150391 26.84863281 C-50.9104248 26.26049805 -50.5293457 25.67236328 -50.13671875 25.06640625 C-49.738479 24.46038574 -49.34023926 23.85436523 -48.92993164 23.22998047 C-47.64052388 21.16179927 -47.64052388 21.16179927 -46.59155273 18.68017578 C-43.76440779 12.81522096 -41.22385783 10.49969062 -35.03125 8.3203125 C-32.44897002 7.57117336 -29.87862803 6.86592853 -27.27734375 6.1953125 C-25.96580887 5.82772585 -24.6552459 5.45665292 -23.34570312 5.08203125 C-20.92732924 4.40097358 -18.50460662 3.7350276 -16.07641602 3.08984375 C-13.75325784 2.4716397 -11.44315613 1.80296668 -9.14599609 1.09423828 C-5.91676261 0.24821312 -3.31961732 -0.0375098 0 0 Z " fill="#E68E76" transform="translate(197.71484375,390.8046875)"/>
<path d="M0 0 C15.94361536 -0.67288412 26.50609663 1.41027791 38.625 12.375 C48.71785952 23.53026578 58.77025893 39.96784564 58.35546875 55.43359375 C57.91654071 59.83734427 57.15971296 64.10882257 56.25 68.4375 C56.09329834 69.20690918 55.93659668 69.97631836 55.77514648 70.76904297 C54.7239504 75.36368153 53.52479834 78.65796898 50 82 C47.24582738 82.86605819 44.80683118 82.60392884 42 82 C39.5 80.5 39.5 80.5 38 78 C37.30901621 72.66955364 38.35620416 68.21611259 39.5625 63 C42.15207882 51.2030298 38.97089638 45.2269139 33 35 C29.55986412 36.41031847 26.12314786 37.82878452 22.6875 39.25 C21.62692383 39.68803955 20.56634766 40.1260791 19.47363281 40.57739258 C13.45030777 43.08418712 7.47085125 45.66476381 1.53515625 48.37109375 C0.61889717 48.78698257 0.61889717 48.78698257 -0.31587219 49.21127319 C-3.30513774 50.56897851 -6.28787203 51.93854931 -9.26293945 53.32714844 C-10.88848755 54.06819824 -10.88848755 54.06819824 -12.546875 54.82421875 C-13.50432617 55.26854248 -14.46177734 55.71286621 -15.44824219 56.1706543 C-18.17296538 57.0562154 -19.36423548 57.01032469 -22 56 C-21.41992188 55.01902344 -20.83984375 54.03804688 -20.2421875 53.02734375 C-10.47558533 36.25795581 -4.49050515 18.88053301 0 0 Z " fill="#DC8169" transform="translate(393,297)"/>
<path d="M0 0 C4.11423308 -0.11541578 6.89815744 -0.09600271 10.4921875 2.12109375 C12.48087296 6.09846466 11.09852618 11.17756565 9.81689453 15.28564453 C8.96424741 17.45606514 8.03697336 19.56870109 7.0546875 21.68359375 C6.70051758 22.45735352 6.34634766 23.23111328 5.98144531 24.02832031 C-1.57898698 40.09997648 -11.85129668 53.71193654 -24.5078125 66.12109375 C-25.17941406 66.79011719 -25.85101563 67.45914063 -26.54296875 68.1484375 C-37.95744035 78.90311305 -49.55849634 82.32317776 -64.82421875 82.38671875 C-68.72253416 82.10561011 -71.80797086 81.32104239 -75.5078125 80.12109375 C-75.5078125 79.46109375 -75.5078125 78.80109375 -75.5078125 78.12109375 C-74.46947266 77.71503906 -74.46947266 77.71503906 -73.41015625 77.30078125 C-48.82494578 66.48199298 -33.9618911 40.51239367 -23.33203125 17.09375 C-22.05981734 14.30117816 -20.75789965 11.5265346 -19.41015625 8.76953125 C-19.0968335 8.12806152 -18.78351074 7.4865918 -18.46069336 6.82568359 C-16.86745139 3.97556435 -15.37855196 2.68127824 -12.5078125 1.12109375 C-8.35929817 0.2695566 -4.21667996 0.20360916 0 0 Z " fill="#4D6F77" transform="translate(151.5078125,375.87890625)"/>
<path d="M0 0 C1.06541016 0.00902344 2.13082031 0.01804687 3.22851562 0.02734375 C5.84008034 0.05076586 8.45116937 0.08356548 11.0625 0.125 C9.26068781 23.9907394 -3.22940101 45.29438188 -20.15625 61.76953125 C-27.66130004 68.12563402 -35.0986209 70.30370634 -44.75 70.375 C-45.43642578 70.395625 -46.12285156 70.41625 -46.83007812 70.4375 C-51.91475127 70.47598381 -55.38393883 69.38689967 -59.9375 67.125 C-59.298125 66.63 -58.65875 66.135 -58 65.625 C-56.989375 64.8 -55.97875 63.975 -54.9375 63.125 C-54.24785156 62.56554687 -53.55820313 62.00609375 -52.84765625 61.4296875 C-47.09603745 56.57276495 -42.88527048 51.51987659 -38.9375 45.125 C-38.59219238 44.56844727 -38.24688477 44.01189453 -37.89111328 43.43847656 C-32.05180575 33.90480802 -27.65044958 24.05415859 -23.6640625 13.62109375 C-23.36661133 12.85909668 -23.06916016 12.09709961 -22.76269531 11.31201172 C-22.2322873 9.90627357 -21.73854638 8.48585022 -21.29199219 7.05126953 C-20.6484375 5.16015625 -20.6484375 5.16015625 -18.9375 2.125 C-13.02620684 -0.74821819 -6.45225259 -0.10413319 0 0 Z " fill="#DF8169" transform="translate(203.9375,390.875)"/>
<path d="M0 0 C2.89683868 2.2015974 4.39297231 3.78594462 6 7 C5.89615554 17.44659376 3.90856737 27.87037174 2.234375 38.15625 C2.02997677 39.41981575 2.02997677 39.41981575 1.82144928 40.70890808 C1.10235374 45.1507521 0.37649481 49.59142859 -0.35498047 54.03125 C-1.10665125 58.60243936 -1.83400012 63.17716379 -2.55618668 67.7530899 C-3.11919934 71.29155372 -3.70022693 74.82688876 -4.28618622 78.36161804 C-4.56246289 80.04777075 -4.83194561 81.73505177 -5.09436798 83.42341614 C-5.46213474 85.77871566 -5.85532485 88.1284303 -6.25488281 90.47851562 C-6.35689499 91.16947327 -6.45890717 91.86043091 -6.56401062 92.57232666 C-7.43518451 97.46184314 -9.21659833 99.85348303 -13 103 C-15.86608129 104.43304064 -17.81300783 104.30644155 -21 104 C-27.31393554 100.84303223 -32.3767739 95.24452921 -37 90 C-37 89.34 -37 88.68 -37 88 C-36.44570313 87.82984375 -35.89140625 87.6596875 -35.3203125 87.484375 C-34.59585937 87.24203125 -33.87140625 86.9996875 -33.125 86.75 C-32.40570313 86.51796875 -31.68640625 86.2859375 -30.9453125 86.046875 C-28.41516392 84.68526894 -28.08560319 83.64970445 -27 81 C-26.52538175 78.88977002 -26.12162456 76.76316543 -25.76318359 74.63012695 C-25.54310638 73.33810867 -25.32302917 72.04609039 -25.09628296 70.71492004 C-24.86331385 69.30609893 -24.63070779 67.89721774 -24.3984375 66.48828125 C-24.1550285 65.03576298 -23.91125861 63.58330514 -23.66714478 62.13090515 C-23.15695972 59.08609257 -22.65155187 56.04053445 -22.14941406 52.99438477 C-21.50875402 49.11060492 -20.85576864 45.22901914 -20.19904137 41.34792805 C-19.69276265 38.34687784 -19.19345022 35.34469926 -18.69612503 32.34215355 C-18.45831209 30.91181153 -18.21832162 29.48182963 -17.97602463 28.05224037 C-15.08835657 14.73412737 -15.08835657 14.73412737 -18 2 C-12.09571496 -0.09930135 -6.24683671 -0.97365819 0 0 Z " fill="#97D729" transform="translate(413,0)"/>
<path d="M0 0 C0.79921875 0.00644531 1.5984375 0.01289062 2.421875 0.01953125 C3.246875 0.03628906 4.071875 0.05304688 4.921875 0.0703125 C5.76234375 0.07933594 6.6028125 0.08835937 7.46875 0.09765625 C9.53658104 0.12115433 11.60426495 0.15702342 13.671875 0.1953125 C12.29783006 3.27490483 10.72729025 5.39241701 8.35197449 7.77590942 C7.66649033 8.46847839 6.98100616 9.16104736 6.27474976 9.87460327 C5.52303497 10.62384064 4.77132019 11.373078 3.99682617 12.14501953 C3.2047728 12.94218384 2.41271942 13.73934814 1.59666443 14.56066895 C-1.02544547 17.1966895 -3.65493153 19.82520304 -6.28515625 22.453125 C-8.1090014 24.28085607 -9.93262206 26.10881118 -11.75602722 27.9369812 C-15.58012029 31.76853954 -19.40799989 35.59626053 -23.23852539 39.42138672 C-27.66317173 43.83999198 -32.07855946 48.2676968 -36.48952466 52.69995606 C-40.73725952 56.96743954 -44.99330698 61.22652716 -49.25269127 65.48238754 C-51.06235428 67.2925645 -52.8696498 69.10511146 -54.67453957 70.92004776 C-57.19756062 73.45538517 -59.72991288 75.98102181 -62.26489258 78.50439453 C-63.38335571 79.63432327 -63.38335571 79.63432327 -64.52441406 80.78707886 C-65.2183577 81.47400818 -65.91230133 82.1609375 -66.62727356 82.86868286 C-67.22476315 83.4663402 -67.82225275 84.06399754 -68.43784809 84.6797657 C-72.85424246 88.22065028 -77.35812997 88.63381685 -82.828125 88.51171875 C-88.04887659 87.85096738 -91.28345035 85.3739198 -94.765625 81.4453125 C-95.28125 80.7028125 -95.796875 79.9603125 -96.328125 79.1953125 C-95.77125 79.18113281 -95.214375 79.16695313 -94.640625 79.15234375 C-93.4959375 79.08080078 -93.4959375 79.08080078 -92.328125 79.0078125 C-91.214375 78.95560547 -91.214375 78.95560547 -90.078125 78.90234375 C-82.67613254 76.99927467 -77.16742139 71.45865196 -71.96582031 66.1418457 C-71.27857376 65.45182465 -70.59132721 64.76180359 -69.883255 64.0508728 C-67.63397145 61.78939434 -65.39531489 59.51768575 -63.15625 57.24609375 C-61.58623488 55.66539268 -60.01540065 54.0855048 -58.44378662 52.50639343 C-54.32252285 48.36241823 -50.20950202 44.21037094 -46.09906006 40.05566406 C-39.50787302 33.39410166 -32.90903358 26.74019564 -26.30104828 20.09529686 C-23.99661532 17.77416104 -21.69870597 15.44670268 -19.40118408 13.11872864 C-17.99200334 11.69908945 -16.58257273 10.27969824 -15.17285156 8.8605957 C-14.53589859 8.21173904 -13.89894562 7.56288239 -13.24269104 6.8943634 C-12.65134872 6.30143494 -12.06000641 5.70850647 -11.45074463 5.09761047 C-10.68649359 4.32474937 -10.68649359 4.32474937 -9.90680313 3.53627491 C-6.76732301 0.86953446 -4.0807197 -0.058296 0 0 Z " fill="#97D729" transform="translate(346.328125,81.8046875)"/>
<path d="M0 0 C1.12148437 0.01450195 1.12148437 0.01450195 2.265625 0.02929688 C3.02617187 0.05443359 3.78671875 0.07957031 4.5703125 0.10546875 C5.7459375 0.12577148 5.7459375 0.12577148 6.9453125 0.14648438 C8.86228032 0.18155086 10.77889001 0.23534803 12.6953125 0.29296875 C12.6953125 4.22694067 11.01459201 5.332304 8.34980774 8.02284241 C7.70931992 8.65411545 7.06883209 9.28538849 6.40893555 9.93579102 C5.74075806 10.60601288 5.07258057 11.27623474 4.38415527 11.96676636 C2.16563953 14.18829887 -0.0634582 16.3988812 -2.29296875 18.609375 C-3.83336067 20.14671041 -5.3731635 21.6846363 -6.91239929 23.22312927 C-10.14368871 26.44980976 -13.37983522 29.67150887 -16.61987305 32.8894043 C-20.77638854 37.01766077 -24.92420026 41.15452291 -29.0688448 45.29469395 C-32.2501655 48.4718599 -35.43430806 51.64618409 -38.6194973 54.81947136 C-40.14979796 56.34406765 -41.67962647 57.86913801 -43.20897865 59.39468575 C-45.34676216 61.52560435 -47.4878915 63.65309922 -49.63012695 65.77954102 C-50.26454208 66.41283829 -50.89895721 67.04613556 -51.55259705 67.69862366 C-52.13729767 68.27761414 -52.72199829 68.85660461 -53.32441711 69.45314026 C-53.83048146 69.95622994 -54.33654581 70.45931963 -54.85794544 70.97765446 C-58.12295096 73.94605397 -60.68441151 74.89820534 -65.1015625 74.81640625 C-69.40625247 73.79366076 -72.48495009 70.5768026 -75.3046875 67.29296875 C-75.6346875 66.30296875 -75.9646875 65.31296875 -76.3046875 64.29296875 C-75.27581924 64.07837509 -74.24695099 63.86378143 -73.18690491 63.64268494 C-68.89997868 62.40513657 -66.22199183 59.86336614 -63.18920898 56.69750977 C-62.62236389 56.12657593 -62.0555188 55.55564209 -61.47149658 54.96740723 C-59.61119121 53.08841387 -57.76893989 51.19267704 -55.92578125 49.296875 C-54.62868708 47.98281955 -53.33024903 46.67008941 -52.03053284 45.35862732 C-48.61753209 41.90960734 -45.21852461 38.44715946 -41.8236084 34.98034668 C-36.3895182 29.4328006 -30.94117113 23.89946272 -25.48011971 18.37846184 C-23.57987985 16.45138457 -21.68982432 14.51471604 -19.80039978 12.57704163 C-18.63090958 11.39025477 -17.46105274 10.20382907 -16.29077148 9.01782227 C-15.51208458 8.21117378 -15.51208458 8.21117378 -14.71766663 7.38822937 C-10.51693582 3.16115258 -6.15028735 -0.14192971 0 0 Z " fill="#97D729" transform="translate(189.3046875,121.70703125)"/>
<path d="M0 0 C2.4375 1.125 2.4375 1.125 4 3 C5.11598016 6.42233916 5.41315439 8.15460157 3.81640625 11.421875 C1.816269 14.26077949 -0.32441281 16.16923318 -3 18.375 C-8.36211382 23.09616144 -10.49017483 26.13989512 -11.4375 33.3125 C-10.66248693 39.84475302 -8.28442388 45.55467352 -4.25 50.75 C-2 54 -2 54 -1.375 57.125 C-2.24145458 61.11069109 -3.74544855 62.59446197 -7 65 C-10 65.625 -10 65.625 -13 65 C-15.5 63 -15.5 63 -18 60 C-18.49628906 59.44183594 -18.99257813 58.88367188 -19.50390625 58.30859375 C-26.28217766 50.17127042 -28.7754948 40.6520201 -28.375 30.1640625 C-27.00399428 18.59620174 -20.80017413 9.77199676 -12 2.375 C-7.83514665 -0.51908117 -4.98723108 -0.74808466 0 0 Z " fill="#DE8168" transform="translate(399,129)"/>
<path d="M0 0 C0.79148438 -0.02578125 1.58296875 -0.0515625 2.3984375 -0.078125 C4.625 0.25 4.625 0.25 6.37109375 1.44140625 C8.01134938 3.80725783 8.12701 5.58095401 8.3125 8.4375 C8.41111328 9.78908203 8.41111328 9.78908203 8.51171875 11.16796875 C8.54910156 11.85503906 8.58648437 12.54210938 8.625 13.25 C9.841875 13.146875 11.05875 13.04375 12.3125 12.9375 C15.80936791 12.94992227 16.57561983 13.21605113 19.625 15.3125 C22.13139423 18.99376653 22.34025283 20.87901047 21.625 25.25 C20.1875 27.6875 20.1875 27.6875 17.625 29.25 C14.59417943 29.56821008 11.65967666 29.48343667 8.625 29.25 C8.66625 30.301875 8.7075 31.35375 8.75 32.4375 C8.63203442 36.03545028 8.32270937 38.12264064 6.625 41.25 C2.9044164 43.73038907 1.02703429 43.71337203 -3.375 43.25 C-5.73997439 41.38291495 -7.03530715 39.92938569 -8.375 37.25 C-8.50915472 34.5776379 -8.41818541 31.92749512 -8.375 29.25 C-8.97828125 29.29640625 -9.5815625 29.3428125 -10.203125 29.390625 C-16.66572561 29.68248438 -16.66572561 29.68248438 -19.9375 27.6875 C-21.96425458 24.25082919 -21.9948676 22.17582814 -21.375 18.25 C-19.375 15.3125 -19.375 15.3125 -16.375 13.25 C-13.56756186 12.84523073 -11.23425459 13.00769029 -8.375 13.25 C-8.436875 12.198125 -8.49875 11.14625 -8.5625 10.0625 C-8.25349482 3.77939463 -6.27403816 0.12182598 0 0 Z " fill="#A2E62D" transform="translate(139.375,-0.25)"/>
<path d="M0 0 C2.5 1.5625 2.5 1.5625 4 4 C5.27941686 11.25002889 1.61303451 16.1928785 -2.31640625 21.91796875 C-6.14010317 26.85282546 -11.17392224 30.71019448 -17 33 C-20.71468894 32.99421388 -21.79488954 32.20315392 -24.45703125 29.56640625 C-25.23433594 28.57511719 -26.01164062 27.58382812 -26.8125 26.5625 C-27.60269531 25.57378906 -28.39289063 24.58507812 -29.20703125 23.56640625 C-31 21 -31 21 -31 19 C-29.93072266 18.70609375 -29.93072266 18.70609375 -28.83984375 18.40625 C-20.0232173 15.65327916 -15.47877223 11.70111974 -11.1875 3.5625 C-10.795625 2.716875 -10.40375 1.87125 -10 1 C-6.79419594 -0.60290203 -3.47817686 -0.48117071 0 0 Z " fill="#DE8168" transform="translate(466,171)"/>
<path d="M0 0 C2.5 1.5 2.5 1.5 4 4 C4.60473284 6.81056787 4.653842 9.19536194 4 12 C1.9375 14.5625 1.9375 14.5625 -1 16 C-5.26438773 16.07481382 -7.23718151 15.64839572 -10.5 12.875 C-12.47798094 9.08386986 -12.13111674 7.07202027 -11 3 C-8.71481962 -1.16709364 -4.22971694 -0.74041323 0 0 Z " fill="white" transform="translate(100,66)"/>
</svg>
